<?xml version="1.0" encoding="utf-8"?>
<!-- Generator: Adobe Illustrator 23.0.5, SVG Export Plug-In . SVG Version: 6.00 Build 0)  -->
<svg version="1.1" id="Layer_1" xmlns="http://www.w3.org/2000/svg" xmlns:xlink="http://www.w3.org/1999/xlink" x="0px" y="0px"
	 viewBox="0 0 512 512" style="enable-background:new 0 0 512 512;" xml:space="preserve">
<style type="text/css">
	.st0{fill:none;stroke:url(#SVGID_1_);stroke-width:8;stroke-miterlimit:10;}
	.st1{fill:none;stroke:url(#SVGID_2_);stroke-width:8;stroke-miterlimit:10;}
	.st2{fill:none;stroke:url(#SVGID_3_);stroke-width:8;stroke-miterlimit:10;}
	.st3{fill:#303030;}
	.st4{fill:#FF497B;}
	.st5{fill:#6E9F00;}
	.st6{fill:#FFAC23;}
	.st7{fill:#481CA2;}
	.st8{fill:url(#SVGID_4_);}
	.st9{opacity:0.3;fill:url(#SVGID_5_);}
	.st10{fill:url(#SVGID_6_);}
	.st11{opacity:0.2;fill:url(#SVGID_7_);}
	.st12{opacity:0.3;fill:url(#SVGID_8_);}
	.st13{opacity:0.2;fill:url(#SVGID_9_);}
	.st14{opacity:0.2;fill:url(#SVGID_10_);}
	.st15{opacity:0.3;fill:url(#SVGID_11_);}
	.st16{opacity:0.2;fill:url(#SVGID_12_);}
	.st17{opacity:0.1;fill:url(#SVGID_13_);}
	.st18{opacity:0.4;fill:#FFFFFF;}
	.st19{opacity:0.3;fill:#FFFFFF;}
	.st20{fill:url(#SVGID_14_);}
	.st21{fill:url(#SVGID_15_);}
	.st22{fill:url(#SVGID_16_);}
	.st23{fill:url(#SVGID_17_);}
	.st24{fill:url(#SVGID_18_);}
	.st25{fill:url(#SVGID_19_);}
	.st26{fill:url(#SVGID_20_);}
	.st27{fill:url(#SVGID_21_);}
	.st28{fill:url(#SVGID_22_);}
	.st29{fill:url(#SVGID_23_);}
	.st30{fill:url(#SVGID_24_);}
	.st31{fill:url(#SVGID_25_);}
	.st32{fill:url(#SVGID_26_);}
	.st33{fill:url(#SVGID_27_);}
	.st34{fill:url(#SVGID_28_);}
	.st35{fill:url(#SVGID_29_);}
	.st36{fill:url(#SVGID_30_);}
	.st37{fill:url(#SVGID_31_);}
	.st38{fill:url(#SVGID_32_);}
	.st39{fill:url(#SVGID_33_);}
	.st40{fill:url(#SVGID_34_);}
	.st41{fill:url(#SVGID_35_);}
	.st42{fill:url(#SVGID_36_);}
	.st43{fill:url(#SVGID_37_);}
	.st44{fill:url(#SVGID_38_);}
	.st45{fill:url(#SVGID_39_);}
	.st46{fill:url(#SVGID_40_);}
	.st47{fill:url(#SVGID_41_);}
	.st48{fill:url(#SVGID_42_);}
	.st49{fill:url(#SVGID_43_);}
	.st50{fill:url(#SVGID_44_);}
	.st51{fill:url(#SVGID_45_);}
	.st52{fill:url(#SVGID_46_);}
	.st53{fill:url(#SVGID_47_);}
	.st54{fill:url(#SVGID_48_);}
	.st55{fill:url(#SVGID_49_);}
	.st56{fill:url(#SVGID_50_);}
	.st57{fill:url(#SVGID_51_);}
	.st58{fill:url(#SVGID_52_);}
	.st59{fill:url(#SVGID_53_);}
	.st60{fill:url(#SVGID_54_);}
	.st61{fill:url(#SVGID_55_);}
	.st62{fill:url(#SVGID_56_);}
	.st63{fill:url(#SVGID_57_);}
	.st64{fill:url(#SVGID_58_);}
	.st65{fill:url(#SVGID_59_);}
	.st66{fill:url(#SVGID_60_);}
	.st67{fill:url(#SVGID_61_);}
	.st68{fill:url(#SVGID_62_);}
	.st69{fill:url(#SVGID_63_);}
	.st70{fill:url(#SVGID_64_);}
	.st71{fill:url(#SVGID_65_);}
	.st72{fill:url(#SVGID_66_);}
	.st73{fill:url(#SVGID_67_);}
	.st74{fill:url(#SVGID_68_);}
	.st75{fill:url(#SVGID_69_);}
	.st76{fill:url(#SVGID_70_);}
	.st77{fill:url(#SVGID_71_);}
	.st78{fill:url(#SVGID_72_);}
	.st79{fill:url(#SVGID_73_);}
	.st80{fill:url(#SVGID_74_);}
	.st81{fill:url(#SVGID_75_);}
	.st82{fill:url(#SVGID_76_);}
	.st83{fill:url(#SVGID_77_);}
	.st84{fill:url(#SVGID_78_);}
	.st85{fill:url(#SVGID_79_);}
	.st86{fill:url(#SVGID_80_);}
	.st87{fill:url(#SVGID_81_);}
	.st88{fill:url(#SVGID_82_);}
	.st89{fill:url(#SVGID_83_);}
	.st90{fill:url(#SVGID_84_);}
	.st91{fill:url(#SVGID_85_);}
	.st92{opacity:0.8;}
	.st93{opacity:0.5;fill:url(#SVGID_86_);}
	.st94{opacity:0.5;fill:url(#SVGID_87_);}
	.st95{opacity:0.5;fill:url(#SVGID_88_);}
	.st96{fill:url(#SVGID_89_);}
	.st97{fill:url(#SVGID_90_);}
	.st98{fill:url(#SVGID_91_);}
	.st99{fill:url(#SVGID_92_);}
	.st100{fill:url(#SVGID_93_);}
	.st101{fill:url(#SVGID_94_);}
	.st102{fill:url(#SVGID_95_);}
	.st103{fill:url(#SVGID_96_);}
	.st104{fill:url(#SVGID_97_);}
	.st105{fill:url(#SVGID_98_);}
	.st106{fill:url(#SVGID_99_);}
	.st107{fill:url(#SVGID_100_);}
	.st108{fill:url(#SVGID_101_);}
	.st109{fill:url(#SVGID_102_);}
	.st110{fill:url(#SVGID_103_);}
	.st111{fill:url(#SVGID_104_);}
	.st112{fill:url(#SVGID_105_);}
	.st113{fill:url(#SVGID_106_);}
	.st114{fill:url(#SVGID_107_);}
	.st115{fill:url(#SVGID_108_);}
	.st116{fill:url(#SVGID_109_);}
	.st117{fill:url(#SVGID_110_);}
	.st118{fill:url(#SVGID_111_);}
	.st119{fill:url(#SVGID_112_);}
	.st120{fill:url(#SVGID_113_);}
	.st121{fill:url(#SVGID_114_);}
	.st122{fill:url(#SVGID_115_);}
	.st123{fill:url(#SVGID_116_);}
	.st124{fill:url(#SVGID_117_);}
	.st125{fill:url(#SVGID_118_);}
	.st126{fill:url(#SVGID_119_);}
	.st127{fill:url(#SVGID_120_);}
	.st128{fill:url(#SVGID_121_);}
	.st129{fill:url(#SVGID_122_);}
	.st130{fill:url(#SVGID_123_);}
	.st131{fill:url(#SVGID_124_);}
	.st132{fill:url(#SVGID_125_);}
	.st133{fill:url(#SVGID_126_);}
	.st134{fill:url(#SVGID_127_);}
	.st135{fill:url(#SVGID_128_);}
	.st136{fill:url(#SVGID_129_);}
	.st137{fill:url(#SVGID_130_);}
	.st138{fill:url(#SVGID_131_);}
	.st139{fill:url(#SVGID_132_);}
	.st140{fill:url(#SVGID_133_);}
	.st141{fill:url(#SVGID_134_);}
	.st142{fill:url(#SVGID_135_);}
	.st143{fill:url(#SVGID_136_);}
	.st144{fill:url(#SVGID_137_);}
	.st145{fill:url(#SVGID_138_);}
	.st146{fill:url(#SVGID_139_);}
	.st147{fill:url(#SVGID_140_);}
	.st148{fill:none;stroke:#F47C7C;stroke-width:6;stroke-miterlimit:10;}
	.st149{fill:#6ACDBA;}
	.st150{fill:url(#SVGID_141_);}
	.st151{fill:url(#SVGID_142_);}
	.st152{fill:url(#SVGID_143_);}
	.st153{fill:#1F839E;}
	.st154{fill:#FEFEFE;}
	.st155{fill:#5852A9;}
	.st156{fill:#493E7F;}
	.st157{fill:#423569;}
	.st158{fill:url(#SVGID_144_);}
	.st159{fill:url(#SVGID_145_);}
	.st160{fill:url(#SVGID_146_);}
	.st161{fill:url(#SVGID_147_);}
	.st162{fill:url(#SVGID_148_);}
</style>
<g>
	<linearGradient id="SVGID_1_" gradientUnits="userSpaceOnUse" x1="145.5201" y1="242.1913" x2="367.4349" y2="242.1913">
		<stop  offset="9.483465e-07" style="stop-color:#F7149A"/>
		<stop  offset="1" style="stop-color:#4E4BFA"/>
	</linearGradient>
	<path style="fill:url(#SVGID_1_);" d="M367.43,185.52c-0.46,21.69-5.67,41.56-12.85,60.98c-12.59,34.04-30.09,65.59-49.35,96.2
		c-13.38,21.27-27.62,41.95-42.93,61.89c-4.22,5.49-7.84,5.5-11.83-0.08c-29.46-41.24-56.64-83.88-78.71-129.59
		c-10.88-22.54-20.49-45.63-24.6-70.53c-5.59-33.85,3.15-63.99,25.21-90.01c18.46-21.78,42.32-34.47,70.66-37.83
		c32.04-3.8,60.73,4.89,85.32,25.79c22.19,18.86,34.7,43.17,38.3,72.05C367.14,178.34,367.22,182.35,367.43,185.52z M256.42,393.44
		c1.17-1.52,1.87-2.39,2.53-3.28c19.1-25.85,36.79-52.63,52.75-80.53c14.41-25.2,27.43-51.07,36.23-78.85
		c6.31-19.93,9.95-40.08,6.57-61.19c-7.02-43.91-46.7-80.06-91.14-82.31c-31.98-1.62-59.31,8.92-80.78,32.8
		c-20.81,23.16-29.1,50.51-24.38,81.46c3.16,20.69,10.76,39.99,19.34,58.91c17.92,39.49,40.51,76.32,64.57,112.29
		C246.69,379.55,251.45,386.24,256.42,393.44z"/>
	<linearGradient id="SVGID_2_" gradientUnits="userSpaceOnUse" x1="133.358" y1="404.8276" x2="379.3702" y2="404.8276">
		<stop  offset="9.483465e-07" style="stop-color:#F7149A"/>
		<stop  offset="1" style="stop-color:#4E4BFA"/>
	</linearGradient>
	<path style="fill:url(#SVGID_2_);" d="M144.88,403.18c0.79,3.27,3.49,4.54,5.97,5.91c9.19,5.05,19.25,7.6,29.4,9.79
		c16.63,3.6,33.5,5.3,50.47,6.3c13.36,0.79,26.74,0.96,40.08,0.5c25.61-0.87,51.1-3.08,75.85-10.41c5.89-1.74,11.62-3.88,16.87-7.12
		c1.91-1.17,3.86-2.38,4.36-5.14c-0.94-3.33-3.97-4.78-6.77-6.29c-10.13-5.47-21.21-8.04-32.39-10.2
		c-6.24-1.21-12.56-2.07-18.84-3.05c-4.07-0.64-6.36-2.99-6.03-6.26c0.36-3.47,3.29-5.42,7.44-4.9
		c16.14,2.01,32.13,4.76,47.35,10.75c5.94,2.34,11.68,5.12,16.19,9.88c6.06,6.4,6.08,13.98-0.08,20.31
		c-5.2,5.34-11.83,8.26-18.67,10.77c-15.59,5.7-31.87,8.35-48.24,10.27c-19.86,2.33-39.82,3.55-59.81,2.97
		c-26.74-0.77-53.36-2.88-79.4-9.54c-8.85-2.26-17.54-5.07-25.28-10.13c-13.38-8.76-13.31-20.74,0.26-29.29
		c11.31-7.13,24.14-10.03,37-12.71c4.64-0.97,9.33-1.73,14.04-2.27c4.07-0.46,6.56,1.29,7.1,4.44c0.56,3.27-1.42,5.82-5.57,6.56
		c-11.8,2.1-23.62,4.11-34.97,8.14c-4.25,1.51-8.39,3.25-12.17,5.74C147.25,399.37,145.46,400.57,144.88,403.18z"/>
	<linearGradient id="SVGID_3_" gradientUnits="userSpaceOnUse" x1="192.443" y1="186.6923" x2="320.3219" y2="186.6923">
		<stop  offset="9.483465e-07" style="stop-color:#F7149A"/>
		<stop  offset="1" style="stop-color:#4E4BFA"/>
	</linearGradient>
	<path style="fill:url(#SVGID_3_);" d="M256.53,122.76c35.22-0.01,63.77,28.63,63.79,63.99c0.02,34.82-28.95,63.86-63.72,63.87
		c-35.34,0.01-64.22-28.87-64.16-64.16C192.5,151.2,221.1,122.77,256.53,122.76z M256.3,134.22c-29.5,0.08-52.43,23.19-52.33,52.75
		c0.1,29.14,23.35,52.14,52.68,52.11c29.02-0.02,52.26-23.5,52.14-52.66C308.67,157.12,285.56,134.14,256.3,134.22z"/>
</g>
</svg>
